<svg xmlns="http://www.w3.org/2000/svg" width="100" height="100" viewBox="0 0 100 100" fill="none">
<path d="M20.1931 59.0413C19.7764 60.3747 20.2764 61.8747 21.3597 62.708L29.3597 68.5413C29.9431 68.958 30.3597 69.5413 30.5264 70.208L33.6097 79.5413C34.0264 80.8747 35.3597 81.7913 36.7764 81.7913H46.6097C47.2764 81.7913 48.0264 82.0413 48.5264 82.458L56.5264 88.2913C57.6931 89.1247 59.2764 89.1247 60.4431 88.2913L68.4431 82.458C69.0264 82.0413 69.6931 81.7913 70.3597 81.7913H80.1931C81.6097 81.7913 82.8597 80.8747 83.3597 79.5413L86.4431 70.208C86.6931 69.5413 87.1097 68.958 87.6097 68.5413L95.6097 62.708C96.7764 61.8747 97.2764 60.3747 96.7764 59.0413L93.6931 49.708C93.4431 49.0413 93.4431 48.2913 93.6931 47.6247L96.8597 38.208C97.2764 36.8747 96.7764 35.3747 95.6931 34.5413L87.6931 28.708C87.1097 28.2913 86.6931 27.708 86.5264 27.0413L83.4431 17.708C83.0264 16.3747 81.6931 15.458 80.2764 15.458H70.3597C69.6931 15.458 68.9431 15.208 68.4431 14.7913L60.4431 8.95801C59.2764 8.12467 57.6931 8.12467 56.5264 8.95801L48.5264 14.7913C47.9431 15.208 47.2764 15.458 46.6097 15.458H36.7764C35.3597 15.458 34.1097 16.3747 33.6097 17.708L30.5264 27.0413C30.2764 27.708 29.8597 28.2913 29.3597 28.708L21.3597 34.5413C20.1931 35.3747 19.6931 36.8747 20.1931 38.208L23.2764 47.5413C23.5264 48.208 23.5264 48.958 23.2764 49.6247L20.1931 59.0413ZM46.2764 62.458C46.6097 61.2913 46.9431 60.1247 47.2764 59.0413C47.6931 57.708 48.0264 57.5413 49.2764 58.208C51.3597 59.2913 53.5264 59.8747 55.8597 60.208C57.3597 60.3747 58.7764 60.208 60.1931 59.6247C62.7764 58.458 63.1931 55.5413 61.0264 53.708C60.2764 53.1247 59.4431 52.6247 58.5264 52.2913C56.2764 51.2913 53.9431 50.5413 51.7764 49.2913C48.2764 47.208 46.1097 44.3747 46.3597 40.1247C46.6097 35.3747 49.3597 32.3747 53.6931 30.7913C55.5264 30.1247 55.5264 30.1247 55.5264 28.2913C55.5264 27.6247 55.5264 27.0413 55.5264 26.3747C55.5264 24.958 55.7764 24.708 57.1931 24.708C57.6097 24.708 58.1097 24.708 58.5264 24.708C61.5264 24.708 61.5264 24.708 61.5264 27.708C61.5264 29.8747 61.5264 29.8747 63.6931 30.208C65.2764 30.458 66.8597 30.958 68.3597 31.6247C69.1931 31.958 69.5264 32.5413 69.2764 33.458C68.8597 34.7913 68.5264 36.0413 68.1097 37.3747C67.6931 38.6247 67.3597 38.7913 66.1931 38.208C63.8597 37.0413 61.3597 36.6247 58.7764 36.708C58.1097 36.708 57.4431 36.8747 56.7764 37.1247C54.5264 38.1247 54.1931 40.5413 56.1097 42.1247C57.1097 42.8747 58.1931 43.458 59.3597 43.958C61.3597 44.7913 63.3597 45.5413 65.2764 46.6247C71.2764 49.958 72.9431 57.5413 68.6931 62.6247C67.1931 64.458 65.1931 65.708 62.8597 66.3747C61.8597 66.6247 61.3597 67.208 61.4431 68.208C61.5264 69.208 61.4431 70.2913 61.4431 71.2913C61.4431 72.208 60.9431 72.708 60.0264 72.708C58.9431 72.708 57.7764 72.708 56.6931 72.708C55.6931 72.708 55.2764 72.1247 55.2764 71.208C55.2764 70.458 55.2764 69.708 55.2764 68.958C55.2764 67.2913 55.1931 67.208 53.6097 66.958C51.5264 66.6247 49.5264 66.1247 47.6931 65.2913C46.0264 64.3747 45.8597 64.0413 46.2764 62.458Z" stroke="#f0943f" stroke-width="2" stroke-linecap="round" fill="#ffffff"/>
<path d="M24.9582 44.7021C25.3008 44.3595 25.7655 44.167 26.25 44.167H48.1731C49.1821 44.167 50 44.9849 50 45.9939V67.917C50 68.4015 49.8075 68.8662 49.4649 69.2088L27.5418 91.1319C26.8284 91.8454 25.6716 91.8454 24.9582 91.1319L3.03509 69.2088C2.32164 68.4954 2.32164 67.3386 3.03509 66.6252L24.9582 44.7021ZM29.3688 75.7598L18.4072 64.7982C17.6938 64.0848 16.537 64.0848 15.8236 64.7982C15.1101 65.5117 15.1101 66.6684 15.8236 67.3819L26.7851 78.3434C27.4986 79.0569 28.6553 79.0569 29.3688 78.3434C30.0822 77.63 30.0822 76.4732 29.3688 75.7598ZM35.3846 64.2631C38.4116 64.2631 40.8654 61.8093 40.8654 58.7824C40.8654 55.7554 38.4116 53.3016 35.3846 53.3016C32.3577 53.3016 29.9038 55.7554 29.9038 58.7824C29.9038 61.8093 32.3577 64.2631 35.3846 64.2631ZM35.3846 60.6093C34.3756 60.6093 33.5577 59.7914 33.5577 58.7824C33.5577 57.7734 34.3756 56.9555 35.3846 56.9555C36.3936 56.9555 37.2115 57.7734 37.2115 58.7824C37.2115 59.7914 36.3936 60.6093 35.3846 60.6093Z" fill="#f0943f"/>
</svg>