<svg width="100" height="100" viewBox="0 0 100 100" fill="none" xmlns="http://www.w3.org/2000/svg">
<path d="M83.2292 48.4458C83.3371 46.7746 83.324 45.0911 83.19 43.4303L89.1668 36.9095L86.2032 28.3575L77.2288 26.9256C75.5908 24.5782 73.6681 22.4561 71.5201 20.6102L71.1171 11.5777L62.9843 7.65856L55.5888 13.0777C54.3607 12.8637 53.1457 12.7143 51.9733 12.6356C50.2508 12.5238 48.4988 12.5457 46.7528 12.6994L40.0553 6.66699L31.5692 9.75353L30.2462 18.8568C28.0555 20.4328 26.0571 22.2692 24.3086 24.3126L15.1436 24.994L11.475 33.2682L16.7842 40.1306C16.5449 41.4524 16.3812 42.7593 16.2994 44.0078C16.1845 45.7769 16.208 47.594 16.3778 49.4059L10.8335 55.1964L13.6074 63.813L22.1918 65.3777C23.9117 67.871 25.9579 70.1198 28.274 72.0627L28.4446 80.5972L36.4824 84.7164L44.1104 79.4073C45.2732 79.6048 46.4325 79.7411 47.5562 79.8162C49.8391 79.9673 52.1509 79.8817 54.4277 79.5646L61.6623 85.0003L69.8437 81.1773L70.312 72.8219C72.313 71.2625 74.1408 69.4724 75.7492 67.4997L84.7166 67.0411L88.568 58.849L82.928 51.2056C83.0681 50.2656 83.1665 49.3369 83.2292 48.4458Z" stroke="#F0943F" stroke-width="2" stroke-linecap="round"/>
<path d="M46.667 69.1661C40.0004 68.3327 34.5837 64.5827 31.667 61.0189L20.0006 79.9996L31.667 78.7496L35.8339 89.9996L46.667 69.1661Z" fill="white" fill-opacity="0.6"/>
<path d="M52.9364 69.1661C59.6031 68.3327 65.0198 64.5827 67.9364 61.0189L79.6029 79.9996L67.9364 78.7496L63.7696 89.9996L52.9364 69.1661Z" fill="white" fill-opacity="0.6"/>
<path fill-rule="evenodd" clip-rule="evenodd" d="M50.0005 66.6667C61.5064 66.6667 70.8338 57.3393 70.8338 45.8333C70.8338 34.3274 61.5064 25 50.0005 25C38.4946 25 29.1672 34.3274 29.1672 45.8333C29.1672 57.3393 38.4946 66.6667 50.0005 66.6667ZM63.2044 40.5721C63.9808 39.723 63.9218 38.4052 63.0726 37.6288C62.2235 36.8524 60.9057 36.9114 60.1293 37.7606L48.1944 50.8144L40.9813 44.2882C40.1281 43.5162 38.8106 43.5821 38.0387 44.4353C37.2667 45.2885 37.3326 46.6059 38.1858 47.3779L48.4726 56.685L63.2044 40.5721Z" fill="#F0943F"/>
<path d="M46.667 69.1661C40.0004 68.3327 34.5837 64.5827 31.667 61.0189L20.0006 79.9996L31.667 78.7496L35.8339 89.9996L46.667 69.1661Z" fill="#F0943F"/>
<path d="M52.9364 69.1661C59.6031 68.3327 65.0198 64.5827 67.9364 61.0189L79.6029 79.9996L67.9364 78.7496L63.7696 89.9996L52.9364 69.1661Z" fill="#F0943F"/>
</svg>
