<svg width="100" height="100" viewBox="0 0 100 100" fill="none" xmlns="http://www.w3.org/2000/svg">
<path d="M39.7291 72.191L49.9989 81.0101C50.922 81.8014 52.1089 82.1146 53.131 81.8509C53.6255 81.7025 54.5981 81.4223 54.4827 79.3782L44.081 70.6909C43.3722 70.1139 43.2733 69.0754 43.8667 68.3831C44.4436 67.6743 45.4822 67.5754 46.191 68.1688L59.2467 79.065C60.2193 79.8727 61.6369 79.7573 62.4776 78.8177C63.3184 77.8782 63.236 76.411 62.2963 75.5538L49.4879 63.9817C48.812 63.3717 48.7625 62.3168 49.3725 61.6409C49.9825 60.9651 51.0209 60.9156 51.6968 61.5255L64.5053 73.1141C64.8679 73.4438 65.1646 73.8229 65.4284 74.2351C65.9229 74.3999 66.7637 74.4164 67.2417 73.9053C67.7857 73.3284 68.9066 71.8118 67.6868 69.8831C66.8131 68.5149 53.9717 54.4537 45.3668 45.1564L38.6906 50.7941C35.9542 53.102 31.866 52.8877 29.3769 50.3161C26.8547 47.6951 26.8052 43.574 29.2779 40.9199C30.4648 39.6342 31.8825 38.134 33.3001 36.667H16.6838V61.7069L37.7839 80.4497C39.3994 81.9004 41.4764 82.6421 43.4381 82.4773C44.625 82.3784 45.2678 82.0157 45.6635 81.6201L37.5861 74.6966C36.8938 74.1032 36.8113 73.0646 37.4048 72.3723C37.9982 71.68 39.0368 71.5976 39.7291 72.191Z" fill="white" stroke="#F0943F" stroke-width="2" stroke-linecap="round"/>
<path d="M31.7339 48.0249C33.0362 49.3437 35.1462 49.459 36.5639 48.2722L44.4434 41.6125C45.1193 41.052 46.1248 41.1179 46.7182 41.7608C49.7843 45.0742 62.8401 59.2179 68.2141 65.3831C68.7745 64.9215 69.335 64.2291 69.8625 63.5697C70.6867 62.5477 71.5273 61.5092 72.5989 60.8992V36.7496C69.5328 36.8155 63.1038 36.6177 57.8453 34.2274C51.7131 31.425 42.6301 32.2657 39.7783 34.9033C39.5475 35.1176 39.2837 35.3483 39.0365 35.5956C38.8716 36.0571 38.509 36.4034 38.031 36.5683C35.9539 38.6123 33.5472 41.1674 31.6844 43.162C30.4151 44.5302 30.4316 46.6731 31.7339 48.0249Z" fill="white" stroke="#F0943F" stroke-width="2" stroke-linecap="round"/>
<path d="M8.24369 32.4795C7.40297 32.4795 6.72705 33.1554 6.72705 33.996V62.2175C6.72705 63.0582 7.40297 63.7341 8.24369 63.7341H11.8702C12.7109 63.7341 13.3868 63.0582 13.3868 62.2175V33.996C13.3868 33.1554 12.7109 32.4795 11.8702 32.4795H8.24369Z" fill="white" stroke="#F0943F" stroke-width="2" stroke-linecap="round"/>
<path d="M75.8954 44.1715V62.7368C75.8954 63.2898 76.5712 63.7344 77.4119 63.7344H81.0385C81.8793 63.7344 82.5551 63.2898 82.5551 62.7368V44.1715C82.5551 43.6185 81.8793 43.1738 81.0385 43.1738H77.4119C76.5712 43.1738 75.8954 43.6185 75.8954 44.1715Z" fill="white" stroke="#F0943F" stroke-width="2" stroke-linecap="round"/>
<path fill-rule="evenodd" clip-rule="evenodd" d="M69.0095 21.0986H96.1024C97.0006 21.0986 97.862 21.4554 98.4971 22.0905C99.1322 22.7257 99.489 23.5871 99.489 24.4852V44.8049C99.489 46.6844 97.9819 48.1915 96.1024 48.1915H85.7732L79.508 54.4736C79.1693 54.7954 78.746 54.9647 78.3227 54.9647H77.476C76.5447 54.9647 75.7827 54.2027 75.7827 53.2714V48.1915H69.0095C68.1113 48.1915 67.25 47.8347 66.6148 47.1996C65.9797 46.5645 65.6229 45.7031 65.6229 44.8049V24.4852C65.6229 23.5871 65.9797 22.7257 66.6148 22.0905C67.25 21.4554 68.1113 21.0986 69.0095 21.0986ZM83.754 26.8952C83.4303 26.028 82.2036 26.0281 81.8802 26.8955L80.4839 30.6399C80.3436 31.0161 79.9919 31.2719 79.5908 31.2895L75.602 31.4648C74.6786 31.5054 74.2998 32.6697 75.0226 33.2458L78.1512 35.7395C78.4645 35.9892 78.5985 36.4018 78.4918 36.788L77.425 40.6462C77.1785 41.5379 78.1709 42.2575 78.9418 41.7459L82.2663 39.5399C82.6012 39.3176 83.0368 39.3176 83.3718 39.5397L86.697 41.7447C87.4681 42.256 88.4602 41.5362 88.2134 40.6445L87.1455 36.7866C87.0386 36.4005 87.1725 35.9879 87.4857 35.738L90.6135 33.2434C91.3361 32.6671 90.957 31.5029 90.0336 31.4626L86.0447 31.2885C85.6436 31.271 85.2918 31.0153 85.1514 30.6391L83.754 26.8952Z" fill="#F0943F"/>
</svg>
